# xmcd CD database file
#
# Track frame offsets:
#	150
#	14178
#	29572
#	50697
#	67072
#	85865
#
# Disc length: 1401 seconds
#
# Revision: 0
# Processed by: cddbd v1.4PL0 Copyright (c) Steve Scherf et al.
# Submitted via: CDex 1.50beta10
#
DISCID=55057706
DTITLE=Goatanger's Aim - Live at Gjøvik
DYEAR=2003
DGENRE=Blues
TTITLE0=Goatanger's Aim - A
TTITLE1=Goatanger's Aim - G
TTITLE2=Goatanger's Aim - E
TTITLE3=Goatanger's Aim - Molly
TTITLE4=Goatanger's Aim - Chasing the Tale (Wah)
TTITLE5=Goatanger's Aim - Graceful Goates
EXTD=YEAR: 2003
EXTT0=
EXTT1=
EXTT2=
EXTT3=
EXTT4=
EXTT5=
PLAYORDER=
